<mxfile host="Electron" agent="Mozilla/5.0 (Macintosh; Intel Mac OS X 10_15_7) AppleWebKit/537.36 (KHTML, like Gecko) draw.io/26.2.2 Chrome/134.0.6998.178 Electron/35.1.2 Safari/537.36" version="26.2.2">
  <diagram name="Page-1" id="t8CD8iMALCH-X7aD-63t">
    <mxGraphModel dx="1261" dy="776" grid="1" gridSize="10" guides="1" tooltips="1" connect="1" arrows="1" fold="1" page="1" pageScale="1" pageWidth="1500" pageHeight="800" math="0" shadow="0" adaptiveColors="auto">
      <root>
        <mxCell id="0" />
        <mxCell id="1" parent="0" />
        <mxCell id="wew-QWh6qaQZwNV8lxf4-5" value="fördela 100 pengar till bank och spelare" style="rounded=1;whiteSpace=wrap;html=1;absoluteArcSize=1;arcSize=14;strokeWidth=2;" parent="1" vertex="1">
          <mxGeometry x="80" y="300" width="100" height="50" as="geometry" />
        </mxCell>
        <mxCell id="wew-QWh6qaQZwNV8lxf4-7" value="&lt;div&gt;spelare&lt;/div&gt;&lt;div&gt;eller bank bankrutt?&lt;/div&gt;" style="strokeWidth=2;html=1;shape=mxgraph.flowchart.decision;whiteSpace=wrap;" parent="1" vertex="1">
          <mxGeometry x="80" y="380" width="100" height="100" as="geometry" />
        </mxCell>
        <mxCell id="wew-QWh6qaQZwNV8lxf4-10" value="start" style="strokeWidth=2;html=1;shape=mxgraph.flowchart.terminator;whiteSpace=wrap;" parent="1" vertex="1">
          <mxGeometry x="80" y="120" width="100" height="60" as="geometry" />
        </mxCell>
        <mxCell id="wew-QWh6qaQZwNV8lxf4-11" value="slut" style="strokeWidth=2;html=1;shape=mxgraph.flowchart.terminator;whiteSpace=wrap;" parent="1" vertex="1">
          <mxGeometry x="80" y="520" width="100" height="60" as="geometry" />
        </mxCell>
        <mxCell id="wew-QWh6qaQZwNV8lxf4-13" value="" style="endArrow=classic;html=1;rounded=0;exitX=0.448;exitY=1.012;exitDx=0;exitDy=0;exitPerimeter=0;entryX=0.448;entryY=0;entryDx=0;entryDy=0;entryPerimeter=0;" parent="1" source="wew-QWh6qaQZwNV8lxf4-10" target="wew-QWh6qaQZwNV8lxf4-36" edge="1">
          <mxGeometry width="50" height="50" relative="1" as="geometry">
            <mxPoint x="290" y="300" as="sourcePoint" />
            <mxPoint x="200" y="190" as="targetPoint" />
          </mxGeometry>
        </mxCell>
        <mxCell id="wew-QWh6qaQZwNV8lxf4-14" value="" style="endArrow=classic;html=1;rounded=0;exitX=0.5;exitY=1;exitDx=0;exitDy=0;entryX=0.5;entryY=0;entryDx=0;entryDy=0;" parent="1" source="wew-QWh6qaQZwNV8lxf4-36" target="wew-QWh6qaQZwNV8lxf4-5" edge="1">
          <mxGeometry width="50" height="50" relative="1" as="geometry">
            <mxPoint x="130" y="270" as="sourcePoint" />
            <mxPoint x="180" y="290" as="targetPoint" />
          </mxGeometry>
        </mxCell>
        <mxCell id="wew-QWh6qaQZwNV8lxf4-17" value="" style="endArrow=classic;html=1;rounded=0;entryX=0.5;entryY=0;entryDx=0;entryDy=0;entryPerimeter=0;exitX=0.5;exitY=1;exitDx=0;exitDy=0;" parent="1" source="wew-QWh6qaQZwNV8lxf4-5" target="wew-QWh6qaQZwNV8lxf4-7" edge="1">
          <mxGeometry width="50" height="50" relative="1" as="geometry">
            <mxPoint x="260" y="485" as="sourcePoint" />
            <mxPoint x="220" y="550" as="targetPoint" />
          </mxGeometry>
        </mxCell>
        <mxCell id="wew-QWh6qaQZwNV8lxf4-18" value="" style="endArrow=classic;html=1;rounded=0;exitX=0.5;exitY=1;exitDx=0;exitDy=0;exitPerimeter=0;entryX=0.5;entryY=0;entryDx=0;entryDy=0;entryPerimeter=0;" parent="1" source="wew-QWh6qaQZwNV8lxf4-7" target="wew-QWh6qaQZwNV8lxf4-11" edge="1">
          <mxGeometry width="50" height="50" relative="1" as="geometry">
            <mxPoint x="330" y="210" as="sourcePoint" />
            <mxPoint x="130" y="520" as="targetPoint" />
          </mxGeometry>
        </mxCell>
        <mxCell id="wew-QWh6qaQZwNV8lxf4-21" value="ja" style="edgeLabel;html=1;align=center;verticalAlign=middle;resizable=0;points=[];" parent="wew-QWh6qaQZwNV8lxf4-18" vertex="1" connectable="0">
          <mxGeometry x="-0.3429" y="2" relative="1" as="geometry">
            <mxPoint as="offset" />
          </mxGeometry>
        </mxCell>
        <mxCell id="wew-QWh6qaQZwNV8lxf4-23" value="" style="endArrow=classic;html=1;rounded=0;exitX=1;exitY=0.5;exitDx=0;exitDy=0;exitPerimeter=0;entryX=0;entryY=0.5;entryDx=0;entryDy=0;" parent="1" source="wew-QWh6qaQZwNV8lxf4-7" target="wew-QWh6qaQZwNV8lxf4-166" edge="1">
          <mxGeometry width="50" height="50" relative="1" as="geometry">
            <mxPoint x="350" y="500" as="sourcePoint" />
            <mxPoint x="260" y="190" as="targetPoint" />
            <Array as="points">
              <mxPoint x="210" y="430" />
              <mxPoint x="210" y="150" />
            </Array>
          </mxGeometry>
        </mxCell>
        <mxCell id="wew-QWh6qaQZwNV8lxf4-25" value="nej" style="edgeLabel;html=1;align=center;verticalAlign=middle;resizable=0;points=[];" parent="wew-QWh6qaQZwNV8lxf4-23" vertex="1" connectable="0">
          <mxGeometry x="-0.0828" y="2" relative="1" as="geometry">
            <mxPoint as="offset" />
          </mxGeometry>
        </mxCell>
        <mxCell id="wew-QWh6qaQZwNV8lxf4-36" value="rita spelplan" style="shape=parallelogram;html=1;strokeWidth=2;perimeter=parallelogramPerimeter;whiteSpace=wrap;rounded=1;arcSize=12;size=0.23;" parent="1" vertex="1">
          <mxGeometry x="80" y="220" width="100" height="40" as="geometry" />
        </mxCell>
        <mxCell id="wew-QWh6qaQZwNV8lxf4-41" value="begär insats" style="shape=parallelogram;html=1;strokeWidth=2;perimeter=parallelogramPerimeter;whiteSpace=wrap;rounded=1;arcSize=12;size=0.23;" parent="1" vertex="1">
          <mxGeometry x="280" y="220" width="100" height="40" as="geometry" />
        </mxCell>
        <mxCell id="wew-QWh6qaQZwNV8lxf4-47" value="" style="endArrow=classic;html=1;rounded=0;exitX=0.5;exitY=1;exitDx=0;exitDy=0;entryX=0.5;entryY=0;entryDx=0;entryDy=0;" parent="1" source="wew-QWh6qaQZwNV8lxf4-166" target="wew-QWh6qaQZwNV8lxf4-41" edge="1">
          <mxGeometry width="50" height="50" relative="1" as="geometry">
            <mxPoint x="359.9999999999998" y="275" as="sourcePoint" />
            <mxPoint x="560" y="405" as="targetPoint" />
          </mxGeometry>
        </mxCell>
        <mxCell id="wew-QWh6qaQZwNV8lxf4-49" value="insats inom&lt;div&gt;gränser?&lt;/div&gt;" style="strokeWidth=2;html=1;shape=mxgraph.flowchart.decision;whiteSpace=wrap;" parent="1" vertex="1">
          <mxGeometry x="280" y="290" width="100" height="100" as="geometry" />
        </mxCell>
        <mxCell id="wew-QWh6qaQZwNV8lxf4-50" value="" style="endArrow=classic;html=1;rounded=0;exitX=0.5;exitY=1;exitDx=0;exitDy=0;entryX=0.5;entryY=0;entryDx=0;entryDy=0;entryPerimeter=0;" parent="1" source="wew-QWh6qaQZwNV8lxf4-41" target="wew-QWh6qaQZwNV8lxf4-49" edge="1">
          <mxGeometry width="50" height="50" relative="1" as="geometry">
            <mxPoint x="510" y="340" as="sourcePoint" />
            <mxPoint x="560" y="290" as="targetPoint" />
          </mxGeometry>
        </mxCell>
        <mxCell id="wew-QWh6qaQZwNV8lxf4-51" value="" style="endArrow=classic;html=1;rounded=0;exitX=0;exitY=0.5;exitDx=0;exitDy=0;exitPerimeter=0;entryX=0;entryY=0.5;entryDx=0;entryDy=0;" parent="1" source="wew-QWh6qaQZwNV8lxf4-49" target="wew-QWh6qaQZwNV8lxf4-41" edge="1">
          <mxGeometry width="50" height="50" relative="1" as="geometry">
            <mxPoint x="220" y="430" as="sourcePoint" />
            <mxPoint x="210" y="270" as="targetPoint" />
            <Array as="points">
              <mxPoint x="250" y="340" />
              <mxPoint x="250" y="240" />
            </Array>
          </mxGeometry>
        </mxCell>
        <mxCell id="wew-QWh6qaQZwNV8lxf4-52" value="nej" style="edgeLabel;html=1;align=center;verticalAlign=middle;resizable=0;points=[];" parent="wew-QWh6qaQZwNV8lxf4-51" vertex="1" connectable="0">
          <mxGeometry x="-0.0506" y="-1" relative="1" as="geometry">
            <mxPoint as="offset" />
          </mxGeometry>
        </mxCell>
        <mxCell id="wew-QWh6qaQZwNV8lxf4-53" value="dra insatser från saldon" style="rounded=1;whiteSpace=wrap;html=1;absoluteArcSize=1;arcSize=14;strokeWidth=2;" parent="1" vertex="1">
          <mxGeometry x="280" y="430" width="100" height="50" as="geometry" />
        </mxCell>
        <mxCell id="wew-QWh6qaQZwNV8lxf4-56" value="" style="endArrow=classic;html=1;rounded=0;exitX=0.5;exitY=1;exitDx=0;exitDy=0;exitPerimeter=0;entryX=0.5;entryY=0;entryDx=0;entryDy=0;" parent="1" source="wew-QWh6qaQZwNV8lxf4-49" target="wew-QWh6qaQZwNV8lxf4-53" edge="1">
          <mxGeometry width="50" height="50" relative="1" as="geometry">
            <mxPoint x="460" y="355" as="sourcePoint" />
            <mxPoint x="510" y="305" as="targetPoint" />
          </mxGeometry>
        </mxCell>
        <mxCell id="wew-QWh6qaQZwNV8lxf4-101" value="ja" style="edgeLabel;html=1;align=center;verticalAlign=middle;resizable=0;points=[];" parent="wew-QWh6qaQZwNV8lxf4-56" vertex="1" connectable="0">
          <mxGeometry x="-0.2452" y="2" relative="1" as="geometry">
            <mxPoint as="offset" />
          </mxGeometry>
        </mxCell>
        <mxCell id="wew-QWh6qaQZwNV8lxf4-57" value="&amp;gt; 2 kort&lt;div&gt;och spelare&lt;/div&gt;&lt;div&gt;nöjd / tjock?&lt;/div&gt;" style="strokeWidth=2;html=1;shape=mxgraph.flowchart.decision;whiteSpace=wrap;" parent="1" vertex="1">
          <mxGeometry x="280" y="511" width="100" height="100" as="geometry" />
        </mxCell>
        <mxCell id="wew-QWh6qaQZwNV8lxf4-65" value="" style="endArrow=classic;html=1;rounded=0;exitX=0.5;exitY=1;exitDx=0;exitDy=0;exitPerimeter=0;entryX=0.5;entryY=0;entryDx=0;entryDy=0;" parent="1" source="wew-QWh6qaQZwNV8lxf4-57" target="wew-QWh6qaQZwNV8lxf4-167" edge="1">
          <mxGeometry width="50" height="50" relative="1" as="geometry">
            <mxPoint x="510" y="965" as="sourcePoint" />
            <mxPoint x="330" y="720" as="targetPoint" />
          </mxGeometry>
        </mxCell>
        <mxCell id="wew-QWh6qaQZwNV8lxf4-66" value="nej" style="edgeLabel;html=1;align=center;verticalAlign=middle;resizable=0;points=[];" parent="wew-QWh6qaQZwNV8lxf4-65" vertex="1" connectable="0">
          <mxGeometry x="-0.1175" y="2" relative="1" as="geometry">
            <mxPoint as="offset" />
          </mxGeometry>
        </mxCell>
        <mxCell id="wew-QWh6qaQZwNV8lxf4-76" value="spelare&lt;div&gt;tjock?&lt;/div&gt;" style="strokeWidth=2;html=1;shape=mxgraph.flowchart.decision;whiteSpace=wrap;" parent="1" vertex="1">
          <mxGeometry x="440" y="511" width="100" height="100" as="geometry" />
        </mxCell>
        <mxCell id="wew-QWh6qaQZwNV8lxf4-77" value="" style="endArrow=classic;html=1;rounded=0;exitX=1;exitY=0.5;exitDx=0;exitDy=0;exitPerimeter=0;entryX=0;entryY=0.5;entryDx=0;entryDy=0;entryPerimeter=0;" parent="1" source="wew-QWh6qaQZwNV8lxf4-57" target="wew-QWh6qaQZwNV8lxf4-76" edge="1">
          <mxGeometry width="50" height="50" relative="1" as="geometry">
            <mxPoint x="900" y="260" as="sourcePoint" />
            <mxPoint x="950" y="210" as="targetPoint" />
          </mxGeometry>
        </mxCell>
        <mxCell id="wew-QWh6qaQZwNV8lxf4-79" value="ja" style="edgeLabel;html=1;align=center;verticalAlign=middle;resizable=0;points=[];" parent="wew-QWh6qaQZwNV8lxf4-77" vertex="1" connectable="0">
          <mxGeometry x="0.0188" y="1" relative="1" as="geometry">
            <mxPoint as="offset" />
          </mxGeometry>
        </mxCell>
        <mxCell id="wew-QWh6qaQZwNV8lxf4-80" value="fördela vinst till bank" style="rounded=1;whiteSpace=wrap;html=1;absoluteArcSize=1;arcSize=14;strokeWidth=2;" parent="1" vertex="1">
          <mxGeometry x="440" y="646" width="100" height="50" as="geometry" />
        </mxCell>
        <mxCell id="wew-QWh6qaQZwNV8lxf4-81" value="" style="endArrow=classic;html=1;rounded=0;exitX=0.5;exitY=1;exitDx=0;exitDy=0;exitPerimeter=0;entryX=0.5;entryY=0;entryDx=0;entryDy=0;" parent="1" source="wew-QWh6qaQZwNV8lxf4-76" target="wew-QWh6qaQZwNV8lxf4-80" edge="1">
          <mxGeometry width="50" height="50" relative="1" as="geometry">
            <mxPoint x="560" y="806" as="sourcePoint" />
            <mxPoint x="610" y="756" as="targetPoint" />
          </mxGeometry>
        </mxCell>
        <mxCell id="wew-QWh6qaQZwNV8lxf4-82" value="ja" style="edgeLabel;html=1;align=center;verticalAlign=middle;resizable=0;points=[];" parent="wew-QWh6qaQZwNV8lxf4-81" vertex="1" connectable="0">
          <mxGeometry x="-0.3415" y="-1" relative="1" as="geometry">
            <mxPoint as="offset" />
          </mxGeometry>
        </mxCell>
        <mxCell id="wew-QWh6qaQZwNV8lxf4-84" value="" style="endArrow=classic;html=1;rounded=0;exitX=0.5;exitY=1;exitDx=0;exitDy=0;entryX=0;entryY=0.5;entryDx=0;entryDy=0;entryPerimeter=0;" parent="1" source="wew-QWh6qaQZwNV8lxf4-80" target="wew-QWh6qaQZwNV8lxf4-7" edge="1">
          <mxGeometry width="50" height="50" relative="1" as="geometry">
            <mxPoint x="1100" y="570" as="sourcePoint" />
            <mxPoint x="30" y="700" as="targetPoint" />
            <Array as="points">
              <mxPoint x="490" y="760" />
              <mxPoint x="40" y="760" />
              <mxPoint x="40" y="430" />
            </Array>
          </mxGeometry>
        </mxCell>
        <mxCell id="wew-QWh6qaQZwNV8lxf4-100" value="" style="endArrow=classic;html=1;rounded=0;exitX=1;exitY=0.5;exitDx=0;exitDy=0;exitPerimeter=0;entryX=0;entryY=0.5;entryDx=0;entryDy=0;" parent="1" source="wew-QWh6qaQZwNV8lxf4-76" target="wew-QWh6qaQZwNV8lxf4-169" edge="1">
          <mxGeometry width="50" height="50" relative="1" as="geometry">
            <mxPoint x="1309" y="410" as="sourcePoint" />
            <mxPoint x="1076" y="205" as="targetPoint" />
            <Array as="points">
              <mxPoint x="560" y="561" />
              <mxPoint x="560" y="150" />
            </Array>
          </mxGeometry>
        </mxCell>
        <mxCell id="wew-QWh6qaQZwNV8lxf4-170" value="nej" style="edgeLabel;html=1;align=center;verticalAlign=middle;resizable=0;points=[];" parent="wew-QWh6qaQZwNV8lxf4-100" vertex="1" connectable="0">
          <mxGeometry x="0.0898" y="2" relative="1" as="geometry">
            <mxPoint as="offset" />
          </mxGeometry>
        </mxCell>
        <mxCell id="wew-QWh6qaQZwNV8lxf4-102" value="&amp;gt; 2 kort&lt;div&gt;och bank&lt;/div&gt;&lt;div&gt;nöjd / tjock?&lt;/div&gt;" style="strokeWidth=2;html=1;shape=mxgraph.flowchart.decision;whiteSpace=wrap;" parent="1" vertex="1">
          <mxGeometry x="606" y="235" width="100" height="100" as="geometry" />
        </mxCell>
        <mxCell id="wew-QWh6qaQZwNV8lxf4-110" value="" style="endArrow=classic;html=1;rounded=0;exitX=0.5;exitY=1;exitDx=0;exitDy=0;exitPerimeter=0;entryX=0.5;entryY=0;entryDx=0;entryDy=0;" parent="1" source="wew-QWh6qaQZwNV8lxf4-102" target="wew-QWh6qaQZwNV8lxf4-168" edge="1">
          <mxGeometry width="50" height="50" relative="1" as="geometry">
            <mxPoint x="806" y="430" as="sourcePoint" />
            <mxPoint x="656" y="380" as="targetPoint" />
          </mxGeometry>
        </mxCell>
        <mxCell id="wew-QWh6qaQZwNV8lxf4-111" value="nej" style="edgeLabel;html=1;align=center;verticalAlign=middle;resizable=0;points=[];" parent="wew-QWh6qaQZwNV8lxf4-110" vertex="1" connectable="0">
          <mxGeometry x="-0.0328" y="-1" relative="1" as="geometry">
            <mxPoint as="offset" />
          </mxGeometry>
        </mxCell>
        <mxCell id="wew-QWh6qaQZwNV8lxf4-125" value="bank&lt;div&gt;tjock eller spelare har fler poäng?&lt;/div&gt;" style="strokeWidth=2;html=1;shape=mxgraph.flowchart.decision;whiteSpace=wrap;" parent="1" vertex="1">
          <mxGeometry x="766" y="236" width="100" height="100" as="geometry" />
        </mxCell>
        <mxCell id="wew-QWh6qaQZwNV8lxf4-126" value="" style="endArrow=classic;html=1;rounded=0;exitX=1;exitY=0.5;exitDx=0;exitDy=0;exitPerimeter=0;entryX=0;entryY=0.5;entryDx=0;entryDy=0;entryPerimeter=0;" parent="1" source="wew-QWh6qaQZwNV8lxf4-102" target="wew-QWh6qaQZwNV8lxf4-125" edge="1">
          <mxGeometry width="50" height="50" relative="1" as="geometry">
            <mxPoint x="932" y="155" as="sourcePoint" />
            <mxPoint x="982" y="105" as="targetPoint" />
          </mxGeometry>
        </mxCell>
        <mxCell id="wew-QWh6qaQZwNV8lxf4-127" value="ja" style="edgeLabel;html=1;align=center;verticalAlign=middle;resizable=0;points=[];" parent="wew-QWh6qaQZwNV8lxf4-126" vertex="1" connectable="0">
          <mxGeometry x="0.0009" y="2" relative="1" as="geometry">
            <mxPoint as="offset" />
          </mxGeometry>
        </mxCell>
        <mxCell id="wew-QWh6qaQZwNV8lxf4-128" value="fördela vinst till spelare" style="rounded=1;whiteSpace=wrap;html=1;absoluteArcSize=1;arcSize=14;strokeWidth=2;" parent="1" vertex="1">
          <mxGeometry x="766" y="380" width="100" height="50" as="geometry" />
        </mxCell>
        <mxCell id="wew-QWh6qaQZwNV8lxf4-129" value="" style="endArrow=classic;html=1;rounded=0;exitX=0.5;exitY=1;exitDx=0;exitDy=0;exitPerimeter=0;entryX=0.5;entryY=0;entryDx=0;entryDy=0;" parent="1" source="wew-QWh6qaQZwNV8lxf4-125" target="wew-QWh6qaQZwNV8lxf4-128" edge="1">
          <mxGeometry width="50" height="50" relative="1" as="geometry">
            <mxPoint x="906" y="371" as="sourcePoint" />
            <mxPoint x="956" y="321" as="targetPoint" />
          </mxGeometry>
        </mxCell>
        <mxCell id="wew-QWh6qaQZwNV8lxf4-130" value="ja" style="edgeLabel;html=1;align=center;verticalAlign=middle;resizable=0;points=[];" parent="wew-QWh6qaQZwNV8lxf4-129" vertex="1" connectable="0">
          <mxGeometry x="-0.2327" y="-1" relative="1" as="geometry">
            <mxPoint as="offset" />
          </mxGeometry>
        </mxCell>
        <mxCell id="wew-QWh6qaQZwNV8lxf4-131" value="" style="endArrow=classic;html=1;rounded=0;exitX=0.5;exitY=1;exitDx=0;exitDy=0;entryX=0.1;entryY=0.4;entryDx=0;entryDy=0;entryPerimeter=0;" parent="1" source="wew-QWh6qaQZwNV8lxf4-128" target="wew-QWh6qaQZwNV8lxf4-7" edge="1">
          <mxGeometry width="50" height="50" relative="1" as="geometry">
            <mxPoint x="1310" y="490" as="sourcePoint" />
            <mxPoint x="70" y="560" as="targetPoint" />
            <Array as="points">
              <mxPoint x="816" y="770" />
              <mxPoint x="30" y="770" />
              <mxPoint x="30" y="420" />
            </Array>
          </mxGeometry>
        </mxCell>
        <mxCell id="wew-QWh6qaQZwNV8lxf4-133" value="" style="endArrow=classic;html=1;rounded=0;exitX=1;exitY=0.5;exitDx=0;exitDy=0;exitPerimeter=0;entryX=0;entryY=0.5;entryDx=0;entryDy=0;" parent="1" source="wew-QWh6qaQZwNV8lxf4-125" target="wew-QWh6qaQZwNV8lxf4-135" edge="1">
          <mxGeometry width="50" height="50" relative="1" as="geometry">
            <mxPoint x="1076" y="441" as="sourcePoint" />
            <mxPoint x="956" y="286" as="targetPoint" />
          </mxGeometry>
        </mxCell>
        <mxCell id="wew-QWh6qaQZwNV8lxf4-134" value="nej" style="edgeLabel;html=1;align=center;verticalAlign=middle;resizable=0;points=[];" parent="wew-QWh6qaQZwNV8lxf4-133" vertex="1" connectable="0">
          <mxGeometry x="0.0021" y="2" relative="1" as="geometry">
            <mxPoint as="offset" />
          </mxGeometry>
        </mxCell>
        <mxCell id="wew-QWh6qaQZwNV8lxf4-135" value="fördela vinst till bank" style="rounded=1;whiteSpace=wrap;html=1;absoluteArcSize=1;arcSize=14;strokeWidth=2;" parent="1" vertex="1">
          <mxGeometry x="926" y="261" width="100" height="50" as="geometry" />
        </mxCell>
        <mxCell id="wew-QWh6qaQZwNV8lxf4-137" value="" style="endArrow=classic;html=1;rounded=0;exitX=0.5;exitY=1;exitDx=0;exitDy=0;entryX=0.27;entryY=0.263;entryDx=0;entryDy=0;entryPerimeter=0;" parent="1" source="wew-QWh6qaQZwNV8lxf4-135" target="wew-QWh6qaQZwNV8lxf4-7" edge="1">
          <mxGeometry width="50" height="50" relative="1" as="geometry">
            <mxPoint x="1810" y="370" as="sourcePoint" />
            <mxPoint x="10" y="540" as="targetPoint" />
            <Array as="points">
              <mxPoint x="976" y="780" />
              <mxPoint x="20" y="780" />
              <mxPoint x="20" y="406" />
            </Array>
          </mxGeometry>
        </mxCell>
        <mxCell id="wew-QWh6qaQZwNV8lxf4-138" value="kortlek&lt;div&gt;slut?&lt;/div&gt;" style="strokeWidth=2;html=1;shape=mxgraph.flowchart.decision;whiteSpace=wrap;" parent="1" vertex="1">
          <mxGeometry x="1270" y="210" width="100" height="100" as="geometry" />
        </mxCell>
        <mxCell id="wew-QWh6qaQZwNV8lxf4-139" value="initiera kortlek" style="rounded=1;whiteSpace=wrap;html=1;absoluteArcSize=1;arcSize=14;strokeWidth=2;" parent="1" vertex="1">
          <mxGeometry x="1270" y="350" width="100" height="50" as="geometry" />
        </mxCell>
        <mxCell id="wew-QWh6qaQZwNV8lxf4-140" value="blanda kortleken" style="rounded=1;whiteSpace=wrap;html=1;absoluteArcSize=1;arcSize=14;strokeWidth=2;" parent="1" vertex="1">
          <mxGeometry x="1270" y="440" width="100" height="50" as="geometry" />
        </mxCell>
        <mxCell id="wew-QWh6qaQZwNV8lxf4-141" value="" style="endArrow=classic;html=1;rounded=0;exitX=0.5;exitY=1;exitDx=0;exitDy=0;entryX=0.5;entryY=0;entryDx=0;entryDy=0;exitPerimeter=0;" parent="1" source="wew-QWh6qaQZwNV8lxf4-138" target="wew-QWh6qaQZwNV8lxf4-139" edge="1">
          <mxGeometry width="50" height="50" relative="1" as="geometry">
            <mxPoint x="1120" y="500" as="sourcePoint" />
            <mxPoint x="1120" y="530" as="targetPoint" />
          </mxGeometry>
        </mxCell>
        <mxCell id="wew-QWh6qaQZwNV8lxf4-142" value="ja" style="edgeLabel;html=1;align=center;verticalAlign=middle;resizable=0;points=[];" parent="wew-QWh6qaQZwNV8lxf4-141" vertex="1" connectable="0">
          <mxGeometry x="0.046" y="2" relative="1" as="geometry">
            <mxPoint as="offset" />
          </mxGeometry>
        </mxCell>
        <mxCell id="wew-QWh6qaQZwNV8lxf4-143" value="" style="endArrow=classic;html=1;rounded=0;exitX=0.5;exitY=1;exitDx=0;exitDy=0;entryX=0.5;entryY=0;entryDx=0;entryDy=0;" parent="1" source="wew-QWh6qaQZwNV8lxf4-139" target="wew-QWh6qaQZwNV8lxf4-140" edge="1">
          <mxGeometry width="50" height="50" relative="1" as="geometry">
            <mxPoint x="1130" y="510" as="sourcePoint" />
            <mxPoint x="1130" y="540" as="targetPoint" />
          </mxGeometry>
        </mxCell>
        <mxCell id="wew-QWh6qaQZwNV8lxf4-144" value="hantera kortlek" style="strokeWidth=2;html=1;shape=mxgraph.flowchart.terminator;whiteSpace=wrap;" parent="1" vertex="1">
          <mxGeometry x="1270" y="120" width="100" height="60" as="geometry" />
        </mxCell>
        <mxCell id="wew-QWh6qaQZwNV8lxf4-145" value="lek hanterad" style="strokeWidth=2;html=1;shape=mxgraph.flowchart.terminator;whiteSpace=wrap;" parent="1" vertex="1">
          <mxGeometry x="1270" y="530" width="100" height="60" as="geometry" />
        </mxCell>
        <mxCell id="wew-QWh6qaQZwNV8lxf4-146" value="" style="endArrow=classic;html=1;rounded=0;entryX=0.5;entryY=0;entryDx=0;entryDy=0;entryPerimeter=0;exitX=0.5;exitY=1;exitDx=0;exitDy=0;exitPerimeter=0;" parent="1" source="wew-QWh6qaQZwNV8lxf4-144" target="wew-QWh6qaQZwNV8lxf4-138" edge="1">
          <mxGeometry width="50" height="50" relative="1" as="geometry">
            <mxPoint x="1350" y="60" as="sourcePoint" />
            <mxPoint x="1400" y="10" as="targetPoint" />
          </mxGeometry>
        </mxCell>
        <mxCell id="wew-QWh6qaQZwNV8lxf4-147" value="" style="endArrow=classic;html=1;rounded=0;entryX=0.5;entryY=0;entryDx=0;entryDy=0;entryPerimeter=0;exitX=0.5;exitY=1;exitDx=0;exitDy=0;" parent="1" source="wew-QWh6qaQZwNV8lxf4-140" target="wew-QWh6qaQZwNV8lxf4-145" edge="1">
          <mxGeometry width="50" height="50" relative="1" as="geometry">
            <mxPoint x="1430" y="370" as="sourcePoint" />
            <mxPoint x="1480" y="320" as="targetPoint" />
          </mxGeometry>
        </mxCell>
        <mxCell id="wew-QWh6qaQZwNV8lxf4-148" value="" style="endArrow=classic;html=1;rounded=0;exitX=1;exitY=0.5;exitDx=0;exitDy=0;exitPerimeter=0;entryX=1;entryY=0.5;entryDx=0;entryDy=0;entryPerimeter=0;" parent="1" source="wew-QWh6qaQZwNV8lxf4-138" target="wew-QWh6qaQZwNV8lxf4-145" edge="1">
          <mxGeometry width="50" height="50" relative="1" as="geometry">
            <mxPoint x="1410" y="230" as="sourcePoint" />
            <mxPoint x="1450" y="610" as="targetPoint" />
            <Array as="points">
              <mxPoint x="1420" y="260" />
              <mxPoint x="1420" y="560" />
            </Array>
          </mxGeometry>
        </mxCell>
        <mxCell id="wew-QWh6qaQZwNV8lxf4-149" value="nej" style="edgeLabel;html=1;align=center;verticalAlign=middle;resizable=0;points=[];" parent="wew-QWh6qaQZwNV8lxf4-148" vertex="1" connectable="0">
          <mxGeometry x="-0.8578" y="3" relative="1" as="geometry">
            <mxPoint as="offset" />
          </mxGeometry>
        </mxCell>
        <mxCell id="wew-QWh6qaQZwNV8lxf4-154" value="" style="endArrow=classic;html=1;rounded=0;entryX=0.208;entryY=0.721;entryDx=0;entryDy=0;entryPerimeter=0;exitX=0;exitY=0.5;exitDx=0;exitDy=0;" parent="1" source="wew-QWh6qaQZwNV8lxf4-168" target="wew-QWh6qaQZwNV8lxf4-102" edge="1">
          <mxGeometry width="50" height="50" relative="1" as="geometry">
            <mxPoint x="617.4999999999995" y="680" as="sourcePoint" />
            <mxPoint x="409.99999999999994" y="660" as="targetPoint" />
            <Array as="points">
              <mxPoint x="580.3299999999999" y="420" />
              <mxPoint x="580" y="340" />
            </Array>
          </mxGeometry>
        </mxCell>
        <mxCell id="wew-QWh6qaQZwNV8lxf4-157" value="dela kort&lt;div&gt;(x)&lt;/div&gt;" style="strokeWidth=2;html=1;shape=mxgraph.flowchart.terminator;whiteSpace=wrap;" parent="1" vertex="1">
          <mxGeometry x="1080" y="120" width="100" height="60" as="geometry" />
        </mxCell>
        <mxCell id="wew-QWh6qaQZwNV8lxf4-159" value="visa hand" style="shape=parallelogram;html=1;strokeWidth=2;perimeter=parallelogramPerimeter;whiteSpace=wrap;rounded=1;arcSize=12;size=0.23;" parent="1" vertex="1">
          <mxGeometry x="1080" y="590" width="100" height="40" as="geometry" />
        </mxCell>
        <mxCell id="wew-QWh6qaQZwNV8lxf4-160" value="visa&lt;div&gt;sannolikheter&lt;/div&gt;" style="shape=parallelogram;html=1;strokeWidth=2;perimeter=parallelogramPerimeter;whiteSpace=wrap;rounded=1;arcSize=12;size=0.23;" parent="1" vertex="1">
          <mxGeometry x="1080" y="205" width="100" height="40" as="geometry" />
        </mxCell>
        <mxCell id="wew-QWh6qaQZwNV8lxf4-161" value="" style="endArrow=classic;html=1;rounded=0;exitX=0.5;exitY=1;exitDx=0;exitDy=0;entryX=0.5;entryY=0;entryDx=0;entryDy=0;" parent="1" source="ynNBs4T7t4yi9WWDqrC2-5" target="wew-QWh6qaQZwNV8lxf4-159" edge="1">
          <mxGeometry width="50" height="50" relative="1" as="geometry">
            <mxPoint x="1130" y="590" as="sourcePoint" />
            <mxPoint x="1340" y="624.5" as="targetPoint" />
          </mxGeometry>
        </mxCell>
        <mxCell id="wew-QWh6qaQZwNV8lxf4-162" value="" style="endArrow=classic;html=1;rounded=0;exitX=0.5;exitY=1;exitDx=0;exitDy=0;" parent="1" source="wew-QWh6qaQZwNV8lxf4-159" target="wew-QWh6qaQZwNV8lxf4-164" edge="1">
          <mxGeometry width="50" height="50" relative="1" as="geometry">
            <mxPoint x="1280" y="674.5" as="sourcePoint" />
            <mxPoint x="1330" y="624.5" as="targetPoint" />
          </mxGeometry>
        </mxCell>
        <mxCell id="wew-QWh6qaQZwNV8lxf4-163" value="" style="endArrow=classic;html=1;rounded=0;exitX=0.5;exitY=1;exitDx=0;exitDy=0;exitPerimeter=0;" parent="1" source="wew-QWh6qaQZwNV8lxf4-157" edge="1">
          <mxGeometry width="50" height="50" relative="1" as="geometry">
            <mxPoint x="960" y="290" as="sourcePoint" />
            <mxPoint x="1130" y="300" as="targetPoint" />
          </mxGeometry>
        </mxCell>
        <mxCell id="wew-QWh6qaQZwNV8lxf4-164" value="kort delat" style="strokeWidth=2;html=1;shape=mxgraph.flowchart.terminator;whiteSpace=wrap;" parent="1" vertex="1">
          <mxGeometry x="1080" y="660" width="100" height="60" as="geometry" />
        </mxCell>
        <mxCell id="wew-QWh6qaQZwNV8lxf4-166" value="dela kort (spelare)" style="verticalLabelPosition=bottom;verticalAlign=top;html=1;shape=process;whiteSpace=wrap;rounded=1;size=0.14;arcSize=6;" parent="1" vertex="1">
          <mxGeometry x="280" y="120" width="100" height="60" as="geometry" />
        </mxCell>
        <mxCell id="wew-QWh6qaQZwNV8lxf4-167" value="dela kort (spelare)" style="verticalLabelPosition=bottom;verticalAlign=top;html=1;shape=process;whiteSpace=wrap;rounded=1;size=0.14;arcSize=6;" parent="1" vertex="1">
          <mxGeometry x="280" y="650" width="100" height="60" as="geometry" />
        </mxCell>
        <mxCell id="wew-QWh6qaQZwNV8lxf4-168" value="dela kort (bank)" style="verticalLabelPosition=bottom;verticalAlign=top;html=1;shape=process;whiteSpace=wrap;rounded=1;size=0.14;arcSize=6;" parent="1" vertex="1">
          <mxGeometry x="606" y="390" width="100" height="60" as="geometry" />
        </mxCell>
        <mxCell id="wew-QWh6qaQZwNV8lxf4-169" value="dela kort (bank)" style="verticalLabelPosition=bottom;verticalAlign=top;html=1;shape=process;whiteSpace=wrap;rounded=1;size=0.14;arcSize=6;" parent="1" vertex="1">
          <mxGeometry x="606" y="120" width="100" height="60" as="geometry" />
        </mxCell>
        <mxCell id="wew-QWh6qaQZwNV8lxf4-171" value="" style="endArrow=classic;html=1;rounded=0;exitX=0.5;exitY=1;exitDx=0;exitDy=0;entryX=0.5;entryY=0;entryDx=0;entryDy=0;entryPerimeter=0;" parent="1" source="wew-QWh6qaQZwNV8lxf4-169" target="wew-QWh6qaQZwNV8lxf4-102" edge="1">
          <mxGeometry width="50" height="50" relative="1" as="geometry">
            <mxPoint x="866" y="155" as="sourcePoint" />
            <mxPoint x="916" y="105" as="targetPoint" />
          </mxGeometry>
        </mxCell>
        <mxCell id="wew-QWh6qaQZwNV8lxf4-172" value="" style="endArrow=classic;html=1;rounded=0;exitX=0;exitY=0.5;exitDx=0;exitDy=0;entryX=0.235;entryY=0.784;entryDx=0;entryDy=0;entryPerimeter=0;" parent="1" source="wew-QWh6qaQZwNV8lxf4-167" target="wew-QWh6qaQZwNV8lxf4-57" edge="1">
          <mxGeometry width="50" height="50" relative="1" as="geometry">
            <mxPoint x="318" y="1005" as="sourcePoint" />
            <mxPoint x="258" y="675" as="targetPoint" />
            <Array as="points">
              <mxPoint x="258" y="680" />
              <mxPoint x="258" y="640" />
            </Array>
          </mxGeometry>
        </mxCell>
        <mxCell id="wew-QWh6qaQZwNV8lxf4-175" value="hantera kortlek" style="verticalLabelPosition=bottom;verticalAlign=top;html=1;shape=process;whiteSpace=wrap;rounded=1;size=0.14;arcSize=6;" parent="1" vertex="1">
          <mxGeometry x="1080" y="405" width="100" height="60" as="geometry" />
        </mxCell>
        <mxCell id="wew-QWh6qaQZwNV8lxf4-179" value="" style="endArrow=classic;html=1;rounded=0;exitX=0.5;exitY=1;exitDx=0;exitDy=0;entryX=0.5;entryY=0;entryDx=0;entryDy=0;entryPerimeter=0;" parent="1" source="wew-QWh6qaQZwNV8lxf4-53" target="wew-QWh6qaQZwNV8lxf4-57" edge="1">
          <mxGeometry width="50" height="50" relative="1" as="geometry">
            <mxPoint x="530" y="340" as="sourcePoint" />
            <mxPoint x="580" y="290" as="targetPoint" />
          </mxGeometry>
        </mxCell>
        <mxCell id="wew-QWh6qaQZwNV8lxf4-180" value="&lt;font style=&quot;font-size: 26px;&quot;&gt;Kortspelet 21&lt;/font&gt;&lt;div&gt;&lt;font style=&quot;font-size: 16px;&quot;&gt;nido24&lt;/font&gt;&lt;/div&gt;" style="text;html=1;align=center;verticalAlign=middle;resizable=0;points=[];autosize=1;strokeColor=none;fillColor=none;" parent="1" vertex="1">
          <mxGeometry x="670" y="10" width="180" height="60" as="geometry" />
        </mxCell>
        <mxCell id="ynNBs4T7t4yi9WWDqrC2-3" value="x vill dra kort?" style="strokeWidth=2;html=1;shape=mxgraph.flowchart.decision;whiteSpace=wrap;" vertex="1" parent="1">
          <mxGeometry x="1080" y="275" width="100" height="100" as="geometry" />
        </mxCell>
        <mxCell id="ynNBs4T7t4yi9WWDqrC2-4" value="" style="endArrow=classic;html=1;rounded=0;exitX=0.5;exitY=1;exitDx=0;exitDy=0;entryX=0.5;entryY=0;entryDx=0;entryDy=0;entryPerimeter=0;" edge="1" parent="1" source="wew-QWh6qaQZwNV8lxf4-160" target="ynNBs4T7t4yi9WWDqrC2-3">
          <mxGeometry width="50" height="50" relative="1" as="geometry">
            <mxPoint x="1200" y="300" as="sourcePoint" />
            <mxPoint x="1230" y="290" as="targetPoint" />
          </mxGeometry>
        </mxCell>
        <mxCell id="ynNBs4T7t4yi9WWDqrC2-5" value="dra kort" style="rounded=1;whiteSpace=wrap;html=1;absoluteArcSize=1;arcSize=14;strokeWidth=2;" vertex="1" parent="1">
          <mxGeometry x="1080" y="511" width="100" height="50" as="geometry" />
        </mxCell>
        <mxCell id="ynNBs4T7t4yi9WWDqrC2-6" value="" style="endArrow=classic;html=1;rounded=0;exitX=0.5;exitY=1;exitDx=0;exitDy=0;exitPerimeter=0;entryX=0.5;entryY=0;entryDx=0;entryDy=0;" edge="1" parent="1" source="ynNBs4T7t4yi9WWDqrC2-3" target="wew-QWh6qaQZwNV8lxf4-175">
          <mxGeometry width="50" height="50" relative="1" as="geometry">
            <mxPoint x="1220" y="360" as="sourcePoint" />
            <mxPoint x="1270" y="420" as="targetPoint" />
          </mxGeometry>
        </mxCell>
        <mxCell id="ynNBs4T7t4yi9WWDqrC2-7" value="ja" style="edgeLabel;html=1;align=center;verticalAlign=middle;resizable=0;points=[];" vertex="1" connectable="0" parent="ynNBs4T7t4yi9WWDqrC2-6">
          <mxGeometry x="-0.4267" y="-1" relative="1" as="geometry">
            <mxPoint as="offset" />
          </mxGeometry>
        </mxCell>
        <mxCell id="ynNBs4T7t4yi9WWDqrC2-8" value="" style="endArrow=classic;html=1;rounded=0;exitX=0.446;exitY=0.99;exitDx=0;exitDy=0;exitPerimeter=0;entryX=0.454;entryY=-0.048;entryDx=0;entryDy=0;entryPerimeter=0;" edge="1" parent="1" source="wew-QWh6qaQZwNV8lxf4-175" target="ynNBs4T7t4yi9WWDqrC2-5">
          <mxGeometry width="50" height="50" relative="1" as="geometry">
            <mxPoint x="1220" y="550" as="sourcePoint" />
            <mxPoint x="1270" y="500" as="targetPoint" />
          </mxGeometry>
        </mxCell>
        <mxCell id="ynNBs4T7t4yi9WWDqrC2-9" value="" style="endArrow=classic;html=1;rounded=0;exitX=1;exitY=0.5;exitDx=0;exitDy=0;exitPerimeter=0;entryX=0.938;entryY=0.12;entryDx=0;entryDy=0;entryPerimeter=0;" edge="1" parent="1" source="ynNBs4T7t4yi9WWDqrC2-3" target="wew-QWh6qaQZwNV8lxf4-164">
          <mxGeometry width="50" height="50" relative="1" as="geometry">
            <mxPoint x="1200" y="340" as="sourcePoint" />
            <mxPoint x="1270" y="640" as="targetPoint" />
            <Array as="points">
              <mxPoint x="1200" y="325" />
              <mxPoint x="1200" y="640" />
            </Array>
          </mxGeometry>
        </mxCell>
        <mxCell id="ynNBs4T7t4yi9WWDqrC2-10" value="nej" style="edgeLabel;html=1;align=center;verticalAlign=middle;resizable=0;points=[];" vertex="1" connectable="0" parent="ynNBs4T7t4yi9WWDqrC2-9">
          <mxGeometry x="-0.0997" y="2" relative="1" as="geometry">
            <mxPoint as="offset" />
          </mxGeometry>
        </mxCell>
      </root>
    </mxGraphModel>
  </diagram>
</mxfile>
